<svg width="80" height="80" viewBox="0 0 80 80" fill="none" xmlns="http://www.w3.org/2000/svg">
<path d="M76.25 6.25H67.8788L66.4425 5.29125C62.475 2.6475 57.8587 1.25 53.0912 1.25H43.75C42.3713 1.25 41.25 2.37125 41.25 3.75C41.25 4.665 41.515 5.5125 41.945 6.25125L35 6.25C32.9325 6.25 31.25 7.9325 31.25 10C31.25 10.4937 31.3512 10.9625 31.525 11.395C30.8275 11.5837 30.2125 11.9637 29.7388 12.4837L28.475 11.22L26.6537 13.04C25.965 13.73 24.9337 13.93 23.9775 13.53C23.08 13.1587 22.5 12.2912 22.5 11.3187V8.75H15V11.3187C15 12.2912 14.42 13.16 13.4713 13.55C12.565 13.9325 11.5338 13.73 10.8438 13.04L9.025 11.22L3.72 16.525L5.53875 18.345C6.2275 19.035 6.42875 20.0662 6.03 21.0212C5.65875 21.9187 4.79125 22.5 3.81875 22.5H1.25V30H3.81875C4.79125 30 5.66 30.5812 6.05125 31.5275C6.43 32.435 6.22875 33.4662 5.54 34.1562L3.72 35.975L9.025 41.28L10.8463 39.46C11.535 38.77 12.565 38.57 13.5213 38.9675C14.4188 39.3412 15 40.2087 15 41.1812V43.75H16.25V46.2825C16.25 48.675 16.5163 51.0587 17.0113 53.3887C15.8188 53.9275 14.6613 54.5562 13.5588 55.2912L12.1212 56.25H3.75C2.37125 56.25 1.25 57.3712 1.25 58.75V73.75C1.25 75.1287 2.37125 76.25 3.75 76.25H11.25C12.2612 76.25 13.13 75.6437 13.5238 74.7775C17.435 77.3475 22.0537 78.75 26.7537 78.75H37.5C38.015 78.75 38.5062 78.645 38.9538 78.4562C39.17 78.5325 39.385 78.6125 39.6038 78.685L40 78.8175L40.3963 78.6862C46.3013 76.7187 51.3725 73.2437 55.2763 68.79C55.52 68.815 55.7675 68.865 56.0213 68.97C56.9188 69.3412 57.5 70.2087 57.5 71.1812V73.75H65V71.1812C65 70.2087 65.5813 69.34 66.5275 68.9487C67.435 68.5712 68.465 68.77 69.155 69.46L70.975 71.28L76.28 65.975L74.4613 64.155C73.7725 63.465 73.5713 62.4337 73.97 61.4787C74.3412 60.5812 75.2087 60 76.1813 60H78.75V52.5H76.1813C75.2087 52.5 74.34 51.9187 73.9488 50.9725C73.57 50.065 73.7712 49.0337 74.46 48.3437L76.2787 46.5237L70.9737 41.2187L69.1525 43.0387C68.4637 43.7287 67.4337 43.9287 66.4762 43.5287C65.58 43.1587 65 42.2912 65 41.3187V38.75H63.75V26.3237C64.6912 25.8662 65.6012 25.3487 66.475 24.7737C66.8675 25.6412 67.7375 26.25 68.75 26.25H76.25C77.6288 26.25 78.75 25.1287 78.75 23.75V8.75C78.75 7.37125 77.6288 6.25 76.25 6.25ZM35 8.75L46.25 8.75125V8.75H50.2125C50.9662 8.75 51.6475 9.09875 52.1138 9.67875C51.5688 10.1487 51.0913 10.68 50.6688 11.25H35C34.3112 11.25 33.75 10.69 33.75 10C33.75 9.31 34.3112 8.75 35 8.75ZM42.7075 20.3025L40.3788 18.75H48.75V21.25H44.295C43.7537 20.9575 43.2212 20.6462 42.7075 20.3025ZM35.705 21.25H35C34.3112 21.25 33.75 20.69 33.75 20C33.75 19.31 34.3112 18.75 35 18.75H39.6213L37.2937 20.3025C36.7787 20.6462 36.2463 20.9575 35.705 21.25ZM32.5 13.75H49.3312C49.045 14.5487 48.8675 15.3875 48.7988 16.25H32.5C31.8113 16.25 31.25 15.69 31.25 15C31.25 14.31 31.8113 13.75 32.5 13.75ZM14.435 36.6412C12.5875 35.8712 10.4838 36.2837 9.07625 37.6925L9.025 37.745L7.255 35.975L7.3075 35.9225C8.715 34.5137 9.1275 32.41 8.34125 30.525C7.5825 28.6875 5.8075 27.5 3.81875 27.5H3.75V25H3.81875C5.8075 25 7.5825 23.8125 8.3575 21.935C9.1275 20.0887 8.715 17.9862 7.3075 16.5775L7.255 16.525L9.025 14.755L9.0775 14.8075C10.4875 16.2187 12.5912 16.6287 14.475 15.8412C16.3125 15.0825 17.5 13.3075 17.5 11.3187V11.25H20V11.3187C20 13.3075 21.1875 15.0837 23.0638 15.8575C24.9088 16.63 27.0138 16.2175 28.4225 14.8075L28.475 14.755L28.7525 15.0337C28.7675 16.7475 29.9412 18.1762 31.525 18.6062C31.3512 19.0375 31.25 19.5062 31.25 20C31.25 21.0475 31.6838 21.9937 32.3787 22.675C30.6737 23.24 28.9025 23.5775 27.11 23.685C26.0012 20.0437 22.6525 17.5 18.75 17.5C13.925 17.5 10 21.4262 10 26.25C10 30.1762 12.5737 33.5412 16.25 34.63V37.92C15.7625 37.3787 15.15 36.9375 14.435 36.6412ZM16.25 22.225V31.9575C14.0162 30.9837 12.5 28.7875 12.5 26.2487C12.5 22.8025 15.3038 19.9987 18.75 19.9987C21.26 19.9987 23.4338 21.4825 24.4225 23.6737C23.5713 23.6137 22.7225 23.5187 21.88 23.3512L16.25 22.225ZM11.25 73.75H3.75V58.75H11.25V73.75ZM37.5 76.25H26.7537C22.07 76.25 17.4813 74.6887 13.75 71.8675V58.1687L14.945 57.3712C18.4988 55.0025 22.6363 53.75 26.9088 53.75H33.75C33.75 55.1287 32.63 56.25 31.255 56.25H31.25H27.4925V58.75H31.25H31.255H42.5C43.1888 58.75 43.75 59.31 43.75 60C43.75 60.69 43.1888 61.25 42.5 61.25H27.5V63.75H45C45.6888 63.75 46.25 64.31 46.25 65C46.25 65.69 45.6888 66.25 45 66.25H27.5V68.75H42.5C43.1888 68.75 43.75 69.31 43.75 70C43.75 70.69 43.1888 71.25 42.5 71.25H27.5V73.75H37.5C38.1888 73.75 38.75 74.31 38.75 75C38.75 75.69 38.1888 76.25 37.5 76.25ZM23.75 46.2825V31.1675C24.47 31.2225 25.1912 31.25 25.9062 31.25C30.66 31.25 34.9663 30.2762 38.75 28.37V56.25H35.555C35.985 55.5112 36.25 54.665 36.25 53.75C36.25 52.3712 35.1287 51.25 33.75 51.25H26.9088C26.0163 51.25 25.1325 51.315 24.2537 51.4125C23.925 49.7275 23.75 48.0075 23.75 46.2825ZM48.7337 64.8362C48.66 63.1812 47.5162 61.8137 45.975 61.395C46.1488 60.9625 46.25 60.4937 46.25 60C46.25 57.9325 44.5675 56.25 42.5 56.25H41.25V28.37C45.0337 30.2775 49.34 31.25 54.0938 31.25C54.8088 31.25 55.53 31.2225 56.25 31.1675V46.2837C56.25 53.3137 53.5062 59.9225 48.7337 64.8362ZM41.1775 75.7175C41.2225 75.485 41.25 75.245 41.25 75C41.25 74.56 41.16 74.1425 41.02 73.75H42.5C44.4925 73.75 46.1125 72.1825 46.2275 70.2187C54.0762 64.775 58.75 55.8875 58.75 46.2825V28.3625L57.3425 28.5425C56.2638 28.68 55.17 28.75 54.0938 28.75C48.995 28.75 44.475 27.5512 40.6575 25.1862L40 24.7787L39.3425 25.1862C35.525 27.5512 31.005 28.75 25.9062 28.75C24.83 28.75 23.7375 28.68 22.6575 28.5425L21.25 28.3625V46.2825C21.25 48.1387 21.435 49.9887 21.7825 51.8037C20.9663 51.9812 20.1637 52.21 19.37 52.4725C18.9662 50.4387 18.75 48.365 18.75 46.2825V25.275L21.3913 25.8037C22.875 26.1 24.395 26.25 25.9062 26.25C30.4663 26.25 34.8838 24.9137 38.68 22.3825L40 21.5025L41.32 22.3825C45.1162 24.9137 49.5325 26.25 54.0938 26.25C55.605 26.25 57.125 26.1 58.61 25.8037L61.25 25.275V46.2837C61.25 59.3662 53.245 70.975 41.1775 75.7175ZM63.4737 50.425C65.835 51.3362 67.5 53.6412 67.5 56.25C67.5 59.6962 64.6963 62.5 61.25 62.5C60.735 62.5 60.2338 62.435 59.745 62.3137C61.6838 58.665 62.96 54.6475 63.4737 50.425ZM65.5638 45.8575C67.4088 46.63 69.5137 46.2175 70.9225 44.8075L70.975 44.755L72.745 46.525L72.6925 46.5775C71.285 47.9862 70.8725 50.09 71.6588 51.975C72.4175 53.8125 74.1925 55 76.1813 55H76.25V57.5H76.1813C74.1925 57.5 72.4175 58.6875 71.6425 60.565C70.8725 62.4112 71.285 64.5137 72.6925 65.9225L72.745 65.975L70.975 67.745L70.9225 67.6925C69.5125 66.2825 67.4087 65.8687 65.5238 66.6587C63.6875 67.4187 62.5 69.1925 62.5 71.1812V71.25H60V71.1812C60 69.2137 58.8362 67.46 56.9912 66.67C57.5062 65.9775 57.9937 65.2662 58.4562 64.5362C59.3512 64.84 60.2863 65 61.25 65C66.075 65 70 61.0737 70 56.25C70 52.3525 67.3525 48.9287 63.6875 47.855C63.7113 47.3312 63.75 46.8112 63.75 46.2825V44.5787C64.2375 45.1212 64.85 45.5625 65.5638 45.8575ZM58.12 23.3525C55.845 23.8062 53.5213 23.84 51.25 23.52V17.0312C51.25 15.0012 52.105 13.1 53.5675 11.7462C54.7762 13.0075 56.4512 13.75 58.2663 13.75H58.75V11.25H58.2663C56.7287 11.25 55.3488 10.395 54.6513 8.9975C53.8063 7.30375 52.1062 6.25 50.2125 6.25H46.245C44.87 6.25 43.75 5.12875 43.75 3.75H53.0912C57.3638 3.75 61.5012 5.0025 65.055 7.37125L66.25 8.16875V21.875C65.455 22.4762 64.62 23.0212 63.75 23.5075V22.225L58.12 23.3525ZM76.25 23.75H68.75V8.75H76.25V23.75Z" fill="#1390DA"/>
<path d="M59.7813 16.58C56.9638 17.2838 54.7325 19.35 53.8138 22.105L56.185 22.8962C56.8325 20.955 58.4025 19.5013 60.3875 19.005L61.5525 18.7138L60.9463 16.29L59.7813 16.58Z" fill="#1390DA"/>
<path d="M1.25 48.75H3.75V51.25H1.25V48.75Z" fill="#1390DA"/>
<path d="M6.25 48.75H8.75V51.25H6.25V48.75Z" fill="#1390DA"/>
<path d="M11.25 48.75H13.75V51.25H11.25V48.75Z" fill="#1390DA"/>
<path d="M66.25 31.25H68.75V33.75H66.25V31.25Z" fill="#1390DA"/>
<path d="M71.25 31.25H73.75V33.75H71.25V31.25Z" fill="#1390DA"/>
<path d="M76.25 31.25H78.75V33.75H76.25V31.25Z" fill="#1390DA"/>
</svg>
