<svg width="80" height="80" viewBox="0 0 80 80" fill="none" xmlns="http://www.w3.org/2000/svg">
<path d="M76.1272 21.9548H66.0086V9.48985C66.0086 7.35438 64.2712 5.61688 62.1356 5.61688H3.87281C1.73734 5.61688 0 7.35423 0 9.48985V55.5216C0 56.5455 0.61125 57.4602 1.55719 57.852C1.87109 57.982 2.19953 58.0453 2.525 58.0453C3.18 58.0453 3.82234 57.7889 4.30594 57.3053L12.3272 49.2841H13.9914V61.7492C13.9914 63.8847 15.7288 65.6222 17.8644 65.6222H42.2598C42.907 65.6222 43.4317 65.0975 43.4317 64.4503C43.4317 63.8031 42.907 63.2784 42.2598 63.2784H17.8644C17.0212 63.2784 16.3352 62.5925 16.3352 61.7492V49.2841H62.1356C64.2711 49.2841 66.0086 47.5467 66.0086 45.4111V37.0839C66.0086 36.4367 65.4839 35.912 64.8367 35.912C64.1895 35.912 63.6648 36.4367 63.6648 37.0839V45.4111C63.6648 46.2542 62.9789 46.9403 62.1356 46.9403H11.8419C11.5311 46.9403 11.233 47.0637 11.0133 47.2836L2.64875 55.6481C2.62344 55.6733 2.56406 55.7325 2.45406 55.6869C2.34375 55.6408 2.34375 55.5572 2.34375 55.5214V9.48985C2.34375 8.64673 3.02969 7.96063 3.87281 7.96063H62.1356C62.9787 7.96063 63.6648 8.64657 63.6648 9.48985V31.9289C63.6648 32.5761 64.1895 33.1008 64.8367 33.1008C65.4839 33.1008 66.0086 32.5761 66.0086 31.9289V24.2988H76.1272C76.9703 24.2988 77.6562 24.9847 77.6562 25.8278V71.8595C77.6562 71.8953 77.6562 71.9789 77.5459 72.0245C77.4358 72.0703 77.3767 72.0111 77.3512 71.9858L68.9867 63.6212C68.767 63.4014 68.4689 63.278 68.1581 63.278H47.4145C46.7673 63.278 46.2427 63.8027 46.2427 64.4498C46.2427 65.097 46.7673 65.6217 47.4145 65.6217H67.6728L75.6941 73.643C76.1778 74.1267 76.82 74.383 77.475 74.383C77.8003 74.383 78.1289 74.3197 78.4428 74.1897C79.3887 73.7978 79.9998 72.8831 79.9998 71.8592V25.8278C80 23.6923 78.2627 21.9548 76.1272 21.9548Z" fill="#1390DA"/>
<path d="M34.6755 39.5048C34.1317 39.7842 33.5698 40.053 33.0047 40.3037C32.4395 40.053 31.8777 39.7842 31.3339 39.5048C28.5909 38.095 26.1558 36.3417 24.0958 34.2934C23.6369 33.8372 22.8948 33.8392 22.4386 34.2981C21.9823 34.757 21.9844 35.4991 22.4433 35.9553C24.6744 38.1736 27.3052 40.0691 30.2625 41.5892C30.8627 41.8976 31.483 42.1937 32.1059 42.4689C32.3916 42.5951 32.6981 42.6583 33.0047 42.6583C33.3111 42.6583 33.6177 42.5951 33.9031 42.4691C34.5266 42.1936 35.1467 41.8976 35.7469 41.5892C45.1684 36.7461 50.0978 28.6161 50.0978 23.0881C50.0978 17.1077 45.5061 12.2422 39.862 12.2422C37.3111 12.2422 34.8748 13.2467 33.0047 15.0359C31.1345 13.2467 28.6981 12.2422 26.1472 12.2422C20.5027 12.2422 15.9103 17.1077 15.9103 23.0881C15.9103 25.6566 17.0448 28.8377 19.023 31.8158C19.3811 32.355 20.1086 32.5017 20.6475 32.1436C21.1867 31.7855 21.3334 31.0581 20.9753 30.5191C19.2459 27.9153 18.2539 25.2067 18.2539 23.088C18.2539 18.3998 21.7947 14.5858 26.147 14.5858C28.4256 14.5858 30.5931 15.6481 32.0941 17.5005C32.3166 17.7752 32.6511 17.9347 33.0045 17.9347C33.358 17.9347 33.6925 17.7752 33.9152 17.5005C35.4159 15.6481 37.5834 14.5858 39.862 14.5858C44.2137 14.5858 47.7541 18.3998 47.7541 23.088C47.7541 26.8361 44.2034 34.6072 34.6755 39.5048Z" fill="#1390DA"/>
<path d="M69.6 54.2836C70.2472 54.2836 70.7719 53.7589 70.7719 53.1117C70.7719 52.4645 70.2472 51.9399 69.6 51.9399H55.5688C54.9216 51.9399 54.3969 52.4645 54.3969 53.1117C54.3969 53.7589 54.9216 54.2836 55.5688 54.2836H69.6Z" fill="#1390DA"/>
<path d="M50.3906 53.1117C50.3906 52.4645 49.8659 51.9399 49.2187 51.9399H21.927C21.2798 51.9399 20.7551 52.4645 20.7551 53.1117C20.7551 53.7589 21.2798 54.2836 21.927 54.2836H49.2187C49.8659 54.2836 50.3906 53.7589 50.3906 53.1117Z" fill="#1390DA"/>
<path d="M36.6667 58.9328H69.6C70.2472 58.9328 70.7719 58.4081 70.7719 57.7609C70.7719 57.1138 70.2472 56.5891 69.6 56.5891H36.6667C36.0196 56.5891 35.4949 57.1138 35.4949 57.7609C35.4949 58.4081 36.0194 58.9328 36.6667 58.9328Z" fill="#1390DA"/>
<path d="M21.927 56.5891C21.2798 56.5891 20.7551 57.1138 20.7551 57.7609C20.7551 58.4081 21.2798 58.9328 21.927 58.9328H30.2742C30.9214 58.9328 31.4461 58.4081 31.4461 57.7609C31.4461 57.1138 30.9214 56.5891 30.2742 56.5891H21.927Z" fill="#1390DA"/>
<path d="M48.2552 42.6581H50.1822C50.8294 42.6581 51.3541 42.1334 51.3541 41.4863C51.3541 40.8391 50.8294 40.3144 50.1822 40.3144H48.2552C47.608 40.3144 47.0833 40.8391 47.0833 41.4863C47.0833 42.1334 47.608 42.6581 48.2552 42.6581Z" fill="#1390DA"/>
</svg>
