<svg width="80" height="80" viewBox="0 0 80 80" fill="none" xmlns="http://www.w3.org/2000/svg">
<g clip-path="url(#clip0)">
<path d="M61.3608 66.8858C59.9086 68.0153 58.4499 69.0966 57.0249 70.0997C56.6794 70.343 56.4916 70.7534 56.5333 71.1737C56.5372 71.2137 56.9248 75.2009 56.5349 78.698C56.4631 79.3411 56.9263 79.9206 57.5695 79.9925C57.6138 79.9973 57.6575 79.9998 57.7009 79.9998C58.29 79.9997 58.7973 79.5567 58.8641 78.9577C59.1858 76.0739 59.0225 72.9744 58.923 71.627C60.2025 70.7141 61.5041 69.7434 62.7997 68.7356C63.3106 68.3383 63.4027 67.602 63.0052 67.0912C62.608 66.5803 61.8717 66.4883 61.3608 66.8858Z" fill="#1390DA"/>
<path d="M79.9978 52.3189C79.0928 37.3391 79.9883 23.32 79.9975 23.1802C80.0188 22.8567 79.905 22.5389 79.6835 22.3025C79.4619 22.0661 79.1524 21.9317 78.8281 21.9317C74.2967 21.9317 71.7706 23.4627 70.5017 27.0236C68.6484 27.1889 67.1238 27.8964 65.9606 29.1331C62.5438 32.7667 63.0075 40.303 63.4166 46.9522C63.4288 47.1503 63.4409 47.3477 63.4528 47.5444C62.2527 47.3689 61.0169 47.5725 59.67 48.1316C56.5123 49.442 52.8184 52.6848 46.6986 58.0577C45.4548 59.1497 44.1687 60.2789 42.755 61.5078C42.5302 61.7034 42.3881 61.9773 42.358 62.2739C42.3262 62.5861 41.5897 70.0231 42.2673 78.9169C42.3142 79.5319 42.8278 79.9997 43.4347 79.9997C43.4645 79.9997 43.4947 79.9986 43.525 79.9964C44.1703 79.9473 44.6536 79.3842 44.6045 78.7387C44.0367 71.287 44.5017 64.7192 44.6491 62.9667C45.928 61.8533 47.1042 60.8206 48.245 59.8189C59.6636 49.7941 62.2492 47.7548 66.4083 51.8022C64.7827 53.2467 61.142 56.4395 57.015 59.7853C56.5122 60.1928 56.4352 60.9309 56.8427 61.4336C57.2503 61.9366 57.9884 62.0134 58.4909 61.6061C64.1091 57.0516 68.8355 52.7762 68.8825 52.7337C69.1134 52.5245 69.2516 52.2319 69.2664 51.9206C69.2813 51.6094 69.1713 51.305 68.961 51.0748C68.5736 50.6508 68.1936 50.2656 67.8189 49.9186L71.1597 46.8686C71.403 46.6466 71.5414 46.3323 71.5414 46.0031C71.5414 37.3655 71.5414 31.6591 72.5514 28.2931C73.3363 25.6775 74.7061 24.5508 77.586 24.3208C77.3906 28.1066 76.9167 39.6667 77.6291 51.9664C76.4199 53.2842 71.9144 58.0806 65.6578 63.3905C65.1644 63.8092 65.1039 64.5487 65.5227 65.042C65.7544 65.3153 66.0845 65.4556 66.4167 65.4556C66.6847 65.4556 66.9541 65.3642 67.1744 65.1772C74.6202 58.8581 79.6536 53.2244 79.7036 53.1683C79.9108 52.9356 80.0166 52.6298 79.9978 52.3189ZM69.1977 45.4862L65.9308 48.4688C65.9049 48.4531 65.8791 48.4378 65.8533 48.4227C65.8225 47.8916 65.7894 47.3525 65.756 46.8083C65.3759 40.6331 64.9453 33.6342 67.6681 30.7386C68.2559 30.1136 68.9825 29.7002 69.8677 29.4911C69.2133 33.1081 69.1981 38.2792 69.1977 45.4862Z" fill="#1390DA"/>
<path d="M37.2449 61.508C35.8314 60.2792 34.5455 59.1502 33.3019 58.0584C31.7541 56.6997 30.2922 55.4162 28.9892 54.2986C28.4977 53.8773 27.7581 53.9339 27.3367 54.4253C26.9153 54.9167 26.972 55.6564 27.4633 56.0778C28.7561 57.1866 30.1461 58.4069 31.7555 59.8198C32.8961 60.8212 34.0724 61.8538 35.351 62.967C35.4983 64.7195 35.9633 71.2873 35.3955 78.7391C35.3464 79.3845 35.8295 79.9475 36.475 79.9967C36.5053 79.9991 36.5353 80 36.5653 80C37.172 80 37.6856 79.5322 37.7327 78.9172C38.4103 70.0234 37.6738 62.5864 37.6419 62.2742C37.6117 61.9775 37.4699 61.7036 37.2449 61.508Z" fill="#1390DA"/>
<path d="M24.3736 50.5559C21.2089 48.2242 18.7667 47.2162 16.5058 47.553C16.5192 47.3353 16.5328 47.1167 16.5464 46.8972C16.9586 40.2656 17.4258 32.7491 14.0219 29.127C12.8636 27.8947 11.3448 27.1892 9.49828 27.0238C8.22953 23.4627 5.70328 21.9316 1.17188 21.9316C0.524687 21.9316 0 22.4561 0 23.1034C0 23.13 0.0009375 23.1563 0.00265625 23.1823C0.917969 37.1583 0.917969 37.1583 0.0021875 52.3187C-0.0165625 52.6297 0.0892188 52.9355 0.296406 53.1684C0.38625 53.2694 9.28125 63.2105 21.077 71.627C20.9775 72.9742 20.8142 76.0739 21.1359 78.9577C21.2028 79.5569 21.7102 79.9998 22.2991 79.9998C22.3425 79.9998 22.3864 79.9973 22.4305 79.9925C23.0737 79.9206 23.537 79.3411 23.4652 78.698C23.0759 75.2087 23.4627 71.2136 23.4667 71.1736C23.5083 70.7533 23.3205 70.343 22.9752 70.0997C12.3975 62.6527 4.08516 53.832 2.37141 51.9669C3.23781 37.623 3.25609 37.0252 2.42594 24.322C5.2975 24.5541 6.66469 25.6813 7.44844 28.2933C8.45844 31.6592 8.45844 37.3656 8.45844 46.0033C8.45844 46.3325 8.59703 46.6467 8.84016 46.8687L12.18 49.918C11.8052 50.2661 11.4256 50.6517 11.0389 51.075C10.8288 51.305 10.7188 51.6095 10.7334 51.9208C10.7481 52.232 10.8864 52.5247 11.1173 52.7339C11.1644 52.7764 15.8908 57.0517 21.5089 61.6062C21.7261 61.7822 21.9869 61.8678 22.2463 61.8678C22.5873 61.8678 22.9256 61.7197 23.1573 61.4339C23.5648 60.9312 23.4878 60.1933 22.985 59.7856C18.8597 56.4412 15.2203 53.2497 13.5936 51.8044C14.9827 50.4623 16.1317 49.8633 17.3169 49.8358C18.7445 49.8011 20.4909 50.6069 22.9833 52.443C23.5044 52.8267 24.2378 52.7158 24.6219 52.1945C25.0059 51.6734 24.8947 50.9398 24.3736 50.5559ZM14.2072 46.7517C14.1717 47.3223 14.1366 47.8872 14.1042 48.4433C14.0916 48.4508 14.0789 48.4584 14.0662 48.4661L10.8023 45.4862C10.802 38.28 10.7867 33.1092 10.1325 29.4923C11.0103 29.7011 11.7309 30.1119 12.3139 30.7323C15.0236 33.6155 14.5898 40.5944 14.2072 46.7517Z" fill="#1390DA"/>
<path d="M27.1283 27.7092C26.8939 27.1059 26.215 26.8069 25.6116 27.0412C25.0083 27.2756 24.7092 27.9547 24.9436 28.558C26.1147 31.5725 28.142 34.1472 30.8066 36.0031C33.5341 37.903 36.7391 38.9073 40.0752 38.9073C49.0223 38.9073 56.3014 31.633 56.3014 22.6916C56.3014 13.75 49.0223 6.47578 40.0752 6.47578C31.128 6.47578 23.8489 13.7502 23.8489 22.6916C23.8489 23.3389 24.3736 23.8634 25.0208 23.8634C25.668 23.8634 26.1927 23.3389 26.1927 22.6916C26.1927 15.0425 32.4203 8.81953 40.0752 8.81953C47.73 8.81953 53.9577 15.0425 53.9577 22.6916C53.9577 30.3406 47.73 36.5636 40.0752 36.5636C37.2205 36.5636 34.4786 35.7048 32.1461 34.0798C29.8652 32.4911 28.13 30.2881 27.1283 27.7092Z" fill="#1390DA"/>
<path d="M62.7817 22.6916C62.7817 17.887 61.2978 13.2955 58.4903 9.41359C58.1111 8.88922 57.3783 8.77125 56.8541 9.15063C56.3297 9.52984 56.212 10.2625 56.5912 10.7869C59.1078 14.2667 60.438 18.3834 60.438 22.6916C60.438 33.9114 51.3033 43.0394 40.0751 43.0394C28.847 43.0394 19.7123 33.9114 19.7123 22.6916C19.7123 11.4717 28.847 2.34375 40.0751 2.34375C44.8147 2.34375 49.4298 4.00641 53.0705 7.02547C53.5686 7.43875 54.3075 7.36984 54.7206 6.87141C55.1339 6.37328 55.0648 5.63453 54.5667 5.22125C50.5064 1.85422 45.3598 0 40.0751 0C27.5547 0 17.3686 10.1794 17.3686 22.6916C17.3686 35.2038 27.5547 45.3831 40.0751 45.3831C52.5956 45.3831 62.7817 35.2038 62.7817 22.6916Z" fill="#1390DA"/>
<path d="M40.0751 28.5167C38.7909 28.5167 37.7461 27.473 37.7461 26.1902C37.7461 25.5428 37.2214 25.0183 36.5742 25.0183C35.927 25.0183 35.4023 25.5428 35.4023 26.1902C35.4023 28.3609 36.892 30.1908 38.9033 30.7119V32.3125C38.9033 32.9598 39.428 33.4844 40.0751 33.4844C40.7223 33.4844 41.247 32.9598 41.247 32.3125V30.7117C43.2583 30.1906 44.748 28.3609 44.748 26.19C44.748 23.6148 42.6517 21.5195 40.0751 21.5195C38.7909 21.5195 37.7461 20.4758 37.7461 19.1928C37.7461 17.9098 38.7909 16.8661 40.0751 16.8661C41.3594 16.8661 42.4042 17.9098 42.4042 19.1928C42.4042 19.8401 42.9289 20.3647 43.5761 20.3647C44.2233 20.3647 44.748 19.8401 44.748 19.1928C44.748 17.0219 43.2583 15.1922 41.247 14.6711V13.0706C41.247 12.4233 40.7223 11.8987 40.0751 11.8987C39.428 11.8987 38.9033 12.4233 38.9033 13.0706V14.6714C36.892 15.1925 35.4023 17.0222 35.4023 19.1931C35.4023 21.7683 37.4986 23.8636 40.0751 23.8636C41.3594 23.8636 42.4042 24.9073 42.4042 26.1903C42.4042 27.4731 41.3594 28.5167 40.0751 28.5167Z" fill="#1390DA"/>
</g>
<defs>
<clipPath id="clip0">
<rect width="80" height="80" fill="white"/>
</clipPath>
</defs>
</svg>
